Coordinates
version=1
nRows=26
nColumns=24
inDegrees=yes

Units are S.I. units (second, meters, Newtons, ...)
Angles are in degrees.

endheader
time	pelvis_tilt	pelvis_list	pelvis_rotation	pelvis_tx	pelvis_ty	pelvis_tz	hip_flexion_r	hip_adduction_r	hip_rotation_r	knee_angle_r	ankle_angle_r	subtalar_angle_r	mtp_angle_r	hip_flexion_l	hip_adduction_l	hip_rotation_l	knee_angle_l	ankle_angle_l	subtalar_angle_l	mtp_angle_l	lumbar_extension	lumbar_bending	lumbar_rotation
      0.85033333	      4.39108112	     -4.38396985	      8.87093342	     -0.50480459	      1.03500447	      0.34891451	      6.58410367	     10.68767325	     -2.30539222	    -15.65647586	      3.40165655	    -12.64439655	      6.25940175	     15.57015585	     -8.48830644	      0.70473728	    -67.98337052	     -1.91411604	     -5.53291116	     -0.90820450	     -6.27511357	      1.18597010	     -1.90912179
      0.85450000	      4.38566181	     -4.27635154	      8.81235850	     -0.50004297	      1.03578812	      0.34920272	      6.13695668	     10.62204722	     -2.28697934	    -15.38751901	      3.53337899	    -12.45565037	      6.25973794	     16.02983257	     -8.28614053	      0.69124796	    -67.54318554	     -1.18834807	     -5.50282141	     -0.95000872	     -6.36174930	      1.06331496	     -1.77396989
      0.85866667	      4.37962418	     -4.17994269	      8.74125962	     -0.49526614	      1.03652274	      0.34950384	      5.68730159	     10.56865687	     -2.25803302	    -15.11076712	      3.68538508	    -12.24664538	      6.25978488	     16.47656450	     -8.10436852	      0.65722748	    -67.05837472	     -0.50954960	     -5.44348426	     -0.99720960	     -6.42627742	      0.94545362	     -1.60439161
      0.86283333	      4.37508268	     -4.08649495	      8.65283017	     -0.49046837	      1.03726199	      0.34981088	      5.22974575	     10.51882627	     -2.21301297	    -14.82523397	      3.83642275	    -12.02907717	      6.25720660	     16.89832467	     -7.92748881	      0.60946370	    -66.51405476	      0.11905980	     -5.39965938	     -1.05391472	     -6.47756020	      0.82549970	     -1.40516740
      0.86700000	      4.36831407	     -3.98429233	      8.54783189	     -0.48569358	      1.03796719	      0.35012299	      4.77682451	     10.45884379	     -2.14561887	    -14.54655794	      3.97792677	    -11.82747464	      6.25233887	     17.30262231	     -7.74013660	      0.54710338	    -65.91665290	      0.69678438	     -5.38264417	     -1.10910955	     -6.53644043	      0.70256686	     -1.20371062
      0.87116667	      4.33487492	     -3.89515666	      8.42566071	     -0.48091467	      1.03858967	      0.35044833	      4.35803741	     10.40923924	     -2.06701684	    -14.27202349	      4.07279483	    -11.68678587	      6.25060162	     17.72252424	     -7.56664735	      0.46630799	    -65.27703927	      1.23114544	     -5.44782380	     -1.12522331	     -6.55571790	      0.58069141	     -1.09132851
      0.87533333	      4.34969642	     -3.78579174	      8.27255474	     -0.47617153	      1.03926987	      0.35079155	      3.88971680	     10.34428032	     -1.94045784	    -14.01804438	      4.22458819	    -11.48022195	      6.24618130	     18.05671648	     -7.38347528	      0.36289282	    -64.57304508	      1.76576723	     -5.37855759	     -1.15705219	     -6.66836441	      0.47725025	     -0.82296144
      0.87950000	      4.35265873	     -3.70777238	      8.12631976	     -0.47139456	      1.03988763	      0.35113168	      3.42433926	     10.31008859	     -1.82616312	    -13.72969834	      4.37275759	    -11.27641298	      6.23432993	     18.39995584	     -7.23805090	      0.26095890	    -63.83021826	      2.22151815	     -5.35836430	     -1.20648066	     -6.71497388	      0.37892032	     -0.50911541
      0.88366667	      4.33399543	     -3.61567049	      7.95191470	     -0.46663955	      1.04044788	      0.35148887	      2.99290828	     10.25587188	     -1.68269087	    -13.46941959	      4.50447823	    -11.10191130	      6.21963746	     18.74042004	     -7.07624309	      0.13359894	    -63.03286584	      2.64634437	     -5.38026106	     -1.25118060	     -6.75480744	      0.26842295	     -0.24645084
      0.88783333	      4.32688225	     -3.52152757	      7.75931784	     -0.46188501	      1.04100116	      0.35186841	      2.54858490	     10.20041194	     -1.51838543	    -13.20909444	      4.62936633	    -10.93783517	      6.20257788	     19.04512560	     -6.92209557	     -0.01694107	    -62.18190976	      3.04120222	     -5.40999110	     -1.29069372	     -6.81034143	      0.15600573	      0.02388071
      0.89200000	      4.30376722	     -3.43502033	      7.55545735	     -0.45713126	      1.04148362	      0.35224919	      2.12687529	     10.14804957	     -1.33910179	    -12.95935606	      4.75608450	    -10.78382690	      6.18328014	     19.35163842	     -6.77693595	     -0.17403513	    -61.28836877	      3.39755107	     -5.44553148	     -1.32683122	     -6.84187499	      0.05410149	      0.30806160
      0.89616667	      4.29602653	     -3.35166597	      7.33776402	     -0.45237789	      1.04197330	      0.35264445	      1.68763643	     10.09980185	     -1.13995623	    -12.70532644	      4.87078146	    -10.63362633	      6.16030585	     19.61853189	     -6.64264064	     -0.34495356	    -60.33920165	      3.71809952	     -5.49822149	     -1.36186640	     -6.89180615	     -0.04301559	      0.60412533
      0.90033333	      4.26456304	     -3.27161253	      7.10612761	     -0.44763147	      1.04236974	      0.35305275	      1.28176415	     10.04893259	     -0.93036583	    -12.46698863	      4.99500456	    -10.49600752	      6.13566734	     19.89571566	     -6.51540026	     -0.53300911	    -59.35032988	      4.00210528	     -5.56472499	     -1.39471170	     -6.90832140	     -0.14227045	      0.90550482
      0.90450000	      4.24993548	     -3.19634270	      6.86411780	     -0.44288239	      1.04277182	      0.35346982	      0.85719309	     10.00292951	     -0.70188883	    -12.22557962	      5.10879810	    -10.35898162	      6.10737682	     20.13295999	     -6.40015033	     -0.72984463	    -58.31005154	      4.25253930	     -5.64582189	     -1.42869782	     -6.94831189	     -0.23162679	      1.22111897
      0.90866667	      4.21826840	     -3.13063747	      6.61555425	     -0.43814473	      1.04309979	      0.35388824	      0.45780573	      9.96202694	     -0.46248496	    -11.99367514	      5.22072904	    -10.23064248	      6.07234347	     20.37523772	     -6.29435199	     -0.92780327	    -57.22978322	      4.46803278	     -5.74158928	     -1.46727898	     -6.96891523	     -0.31068039	      1.55923428
      0.91283333	      4.18278178	     -3.06180617	      6.35488701	     -0.43338501	      1.04338812	      0.35431697	      0.06400930	      9.91341113	     -0.21833182	    -11.76897057	      5.34154903	    -10.10842342	      6.03555831	     20.59684238	     -6.19133616	     -1.14368072	    -56.10002418	      4.64532004	     -5.85817981	     -1.50799105	     -6.97330575	     -0.39483259	      1.87836874
      0.91700000	      4.15039081	     -2.99404769	      6.08715597	     -0.42863193	      1.04365999	      0.35474353	     -0.32930870	      9.86277641	      0.03861860	    -11.54952197	      5.46021479	     -9.99184228	      5.99656240	     20.79377626	     -6.09162702	     -1.36646184	    -54.91950519	      4.78456565	     -5.99677297	     -1.55224220	     -6.98294336	     -0.47739037	      2.20295422
      0.92116667	      4.08393665	     -2.93321009	      5.80087038	     -0.42389344	      1.04382503	      0.35519776	     -0.66819741	      9.81300134	      0.31221376	    -11.36647702	      5.58090578	     -9.88506816	      5.97277549	     21.01150833	     -6.00338608	     -1.60498728	    -53.70306069	      4.90972152	     -6.12931365	     -1.58301070	     -6.96962003	     -0.55137137	      2.43058150
      0.92533333	      4.03418770	     -2.88395134	      5.52077628	     -0.41913995	      1.04397548	      0.35562288	     -1.03207205	      9.77290948	      0.58483991	    -11.16447747	      5.70487671	     -9.77884059	      5.94575557	     21.19485577	     -5.92754969	     -1.83774833	    -52.44424973	      4.99017370	     -6.30198515	     -1.62007437	     -6.95758439	     -0.61461621	      2.73865475
      0.92950000	      3.99409862	     -2.84684770	      5.26002532	     -0.41435136	      1.04411395	      0.35601866	     -1.41819876	      9.74432794	      0.83747650	    -10.93254351	      5.82903079	     -9.67464502	      5.89697804	     21.35207373	     -5.85898206	     -2.04772505	    -51.14177355	      5.01698191	     -6.52394064	     -1.68397714	     -6.92611490	     -0.66127359	      3.17480707
      0.93366667	      3.93107183	     -2.80399983	      4.97728803	     -0.40957773	      1.04418312	      0.35643025	     -1.76277497	      9.70290726	      1.11341214	    -10.73932850	      5.95628014	     -9.57124040	      5.84651135	     21.50946258	     -5.78822018	     -2.27880544	    -49.79460760	      5.03814556	     -6.73705965	     -1.75344664	     -6.89017935	     -0.71256121	      3.50312521
      0.93783333	      3.85548217	     -2.77030959	      4.69447994	     -0.40480076	      1.04418102	      0.35683873	     -2.08875193	      9.66770986	      1.38973231	    -10.55453944	      6.08703018	     -9.47166267	      5.79092497	     21.66609393	     -5.72567779	     -2.50662555	    -48.41256351	      5.03201459	     -6.97673490	     -1.83335009	     -6.84141607	     -0.75542715	      3.83484179
      0.94200000	      3.76744602	     -2.75083956	      4.41486524	     -0.40002082	      1.04411668	      0.35723106	     -2.39742516	      9.64367065	      1.66795137	    -10.37357717	      6.21410102	     -9.37415462	      5.72853332	     21.82283160	     -5.67646377	     -2.72852186	    -46.99724994	      5.00963453	     -7.22895469	     -1.92602209	     -6.77646705	     -0.78349686	      4.15715339
      0.94616667	      3.68087106	     -2.73070847	      4.12270557	     -0.39525329	      1.04402018	      0.35763418	     -2.69451439	      9.61655078	      1.95922960	    -10.22254311	      6.35636710	     -9.28980973	      5.69409971	     21.95634845	     -5.63577321	     -2.97660879	    -45.54153927	      4.98995759	     -7.44029502	     -1.98591555	     -6.72215539	     -0.81126847	      4.36159652
      0.95033333	      3.59319503	     -2.72243726	      3.86864472	     -0.39044390	      1.04387775	      0.35795055	     -3.00867973	      9.59810796	      2.20644239	    -10.02693767	      6.49284686	     -9.20594960	      5.62841907	     22.08073301	     -5.58478522	     -3.17185318	    -44.05102050	      4.89955077	     -7.77284331	     -2.09013701	     -6.64209707	     -0.80841226	      4.74862533
      0.95450000	      3.49278468	     -2.71484676	      3.58378594	     -0.38566705	      1.04368081	      0.35832442	     -3.28458969	      9.57817745	      2.49231388	     -9.88628850	      6.63773623	     -9.12414043	      5.58719551	     22.19706329	     -5.55356180	     -3.41363926	    -42.52637828	      4.85280910	     -7.99995749	     -2.16225640	     -6.57837682	     -0.82554538	      4.96059017
